<mxfile host="app.diagrams.net" modified="2023-05-30T08:06:01.643Z" agent="Mozilla/5.0 (Macintosh; Intel Mac OS X 10_15_7) AppleWebKit/537.36 (KHTML, like Gecko) Chrome/113.0.0.0 Safari/537.36" version="21.3.3" etag="Fu890JK9Cx4IClJdIpe1" type="github">
  <diagram name="Сторінка-1" id="13eHRys5txJup3KjwrGd">
    <mxGraphModel>
      <root>
        <mxCell id="0" />
        <mxCell id="1" parent="0" />
      </root>
    </mxGraphModel>
  </diagram>
</mxfile>
